# xmcd
#
# Track frame offsets: 
#        150
#        12769
#        27232
#        43830
#        58814
#        72649
#        81819
#        96105
#        112874
#        130248
#        142109
#        158517
#        179141
#        197615
#        211964
#        224259
#        240491
#        252586
#        265325
#        280743
#        300094
#        310722
#
# Disc length: 4315 seconds
#
# Revision: 0
# Processed by: cddbd v1.5.2PL0 Copyright (c) Steve Scherf et al.
# Submitted via: ExactAudioCopyFreeDBPlugin 1.0
#
DISCID=3b10d916
DTITLE=Memphis Slim - Boogie After Midnight (2 of 2)
DYEAR=2012
DGENRE=Blues
TTITLE0=Rock Me Baby
TTITLE1=Whiskey Drinking Blues
TTITLE2=Sitting On Top Of The World
TTITLE3=88 Boogie
TTITLE4=Goin' Down To The River
TTITLE5=How Long Blues
TTITLE6=Trouble In Mind
TTITLE7=Goin' Down Slow
TTITLE8=Three Women Blues
TTITLE9=Four O'clock Blues
TTITLE10=Mean Mistreatin' Mama
TTITLE11=Late Afternoon Blues
TTITLE12=I Can Hear My Name A-Ringin'
TTITLE13=Woman Blues Boogie
TTITLE14=Whiskey And Gin Blues
TTITLE15=44 Blues
TTITLE16=Mister Freddie
TTITLE17=Maybe I'll Loan You A Dime
TTITLE18=Walkin' The Boogie
TTITLE19=Red Haired Boogie
TTITLE20=San Juan Blues
TTITLE21=Kilroy Has Been Here
EXTD=
EXTT0=
EXTT1=
EXTT2=
EXTT3=
EXTT4=
EXTT5=
EXTT6=
EXTT7=
EXTT8=
EXTT9=
EXTT10=
EXTT11=
EXTT12=
EXTT13=
EXTT14=
EXTT15=
EXTT16=
EXTT17=
EXTT18=
EXTT19=
EXTT20=
EXTT21=
PLAYORDER=
